HIERARCHY
ROOT WildBoar_ROOTSHJnt
{
	OFFSET 0.000000 44.410820 68.815338
	CHANNELS 6 Xposition Yposition Zposition Xrotation Yrotation Zrotation
	JOINT WildBoar_Spine_01SHJnt
	{
		OFFSET -0.000000 -13.726324 -0.500702
		CHANNELS 3 Xrotation Yrotation Zrotation
		JOINT WildBoar_Spine_02SHJnt
		{
			OFFSET -0.000000 -13.721075 -0.511734
			CHANNELS 3 Xrotation Yrotation Zrotation
			JOINT WildBoar_Spine_03SHJnt
			{
				OFFSET -0.000000 -13.733017 -0.763184
				CHANNELS 3 Xrotation Yrotation Zrotation
				JOINT WildBoar_Spine_04SHJnt
				{
					OFFSET 0.000000 -13.726805 1.066475
					CHANNELS 3 Xrotation Yrotation Zrotation
					JOINT WildBoar_Spine_TopSHJnt
					{
						OFFSET 0.000000 -13.726805 0.709183
						CHANNELS 3 Xrotation Yrotation Zrotation
						JOINT WildBoar_l_Clavicle_01_01SHJnt
						{
							OFFSET 8.670297 0.000000 0.000000
							CHANNELS 3 Xrotation Yrotation Zrotation
							JOINT WildBoar_l_FrontLeg_HipSHJnt
							{
								OFFSET 3.164961 0.548840 -12.164703
								CHANNELS 3 Xrotation Yrotation Zrotation
								JOINT WildBoar_l_FrontLeg_Knee1SHJnt
								{
									OFFSET 0.316314 -0.817221 -32.444130
									CHANNELS 3 Xrotation Yrotation Zrotation
									JOINT WildBoar_l_FrontLeg_Knee2SHJnt
									{
										OFFSET 0.171660 1.067869 -17.603088
										CHANNELS 3 Xrotation Yrotation Zrotation
										JOINT WildBoar_l_FrontLeg_AnkleSHJnt
										{
											OFFSET 0.012912 -0.586981 -1.322436
											CHANNELS 3 Xrotation Yrotation Zrotation
											JOINT WildBoar_l_FrontLeg_BallSHJnt
											{
												OFFSET -0.004807 -3.825893 -5.280976
												CHANNELS 3 Xrotation Yrotation Zrotation
												JOINT WildBoar_l_FrontLeg_ToeSHJnt
												{
													OFFSET -0.006160 -4.905069 -0.000002
													CHANNELS 3 Xrotation Yrotation Zrotation
													End Site
													{
														OFFSET 4.905067 -0.006161 -0.000003
													}
												}
											}
										}
									}
								}
							}
						}
						JOINT WildBoar_r_Clavicle_01_01SHJnt
						{
							OFFSET -8.670297 0.000000 0.000000
							CHANNELS 3 Xrotation Yrotation Zrotation
							JOINT WildBoar_r_FrontLeg_HipSHJnt
							{
								OFFSET -3.164964 0.548840 -12.164703
								CHANNELS 3 Xrotation Yrotation Zrotation
								JOINT WildBoar_r_FrontLeg_Knee1SHJnt
								{
									OFFSET -0.316322 -0.817221 -32.444130
									CHANNELS 3 Xrotation Yrotation Zrotation
									JOINT WildBoar_r_FrontLeg_Knee2SHJnt
									{
										OFFSET -0.171665 1.067869 -17.603088
										CHANNELS 3 Xrotation Yrotation Zrotation
										JOINT WildBoar_r_FrontLeg_AnkleSHJnt
										{
											OFFSET -0.012913 -0.586981 -1.322436
											CHANNELS 3 Xrotation Yrotation Zrotation
											JOINT WildBoar_r_FrontLeg_BallSHJnt
											{
												OFFSET 0.004806 -3.825893 -5.280976
												CHANNELS 3 Xrotation Yrotation Zrotation
												JOINT WildBoar_r_FrontLeg_ToeSHJnt
												{
													OFFSET 0.006160 -4.905069 -0.000002
													CHANNELS 3 Xrotation Yrotation Zrotation
													End Site
													{
														OFFSET 4.905068 0.006161 -0.000002
													}
												}
											}
										}
									}
								}
							}
						}
						JOINT WildBoar_Neck_01SHJnt
						{
							OFFSET -0.000000 -12.476246 -2.105774
							CHANNELS 3 Xrotation Yrotation Zrotation
							JOINT WildBoar_Neck_02SHJnt
							{
								OFFSET 0.000000 -10.017231 1.165779
								CHANNELS 3 Xrotation Yrotation Zrotation
								JOINT WildBoar_Neck_TopSHJnt
								{
									OFFSET 0.000000 -9.610825 0.768044
									CHANNELS 3 Xrotation Yrotation Zrotation
									JOINT WildBoar_Head_JawSHJnt
									{
										OFFSET -0.000001 -11.273338 -4.973049
										CHANNELS 3 Xrotation Yrotation Zrotation
										JOINT WildBoar_Head_JawEndSHJnt
										{
											OFFSET -0.000002 -22.190353 -15.124695
											CHANNELS 3 Xrotation Yrotation Zrotation
											End Site
											{
												OFFSET -0.000002 -22.110291 -15.241497
											}
										}
									}
									JOINT WildBoar_Head_TopSHJnt
									{
										OFFSET 0.000002 -15.944977 17.523094
										CHANNELS 3 Xrotation Yrotation Zrotation
										JOINT WildBoar_l_Ear_01_01SHJnt
										{
											OFFSET 10.362524 11.406597 -2.807991
											CHANNELS 3 Xrotation Yrotation Zrotation
											JOINT WildBoar_l_Ear_01_02SHJnt
											{
												OFFSET 6.918999 -0.514683 5.827293
												CHANNELS 3 Xrotation Yrotation Zrotation
												JOINT WildBoar_l_Ear_01_03SHJnt
												{
													OFFSET 5.957382 0.355659 6.469810
													CHANNELS 3 Xrotation Yrotation Zrotation
													End Site
													{
														OFFSET 5.020468 -6.741234 -2.612671
													}
												}
											}
										}
										JOINT WildBoar_r_Ear_01_01SHJnt
										{
											OFFSET -10.362526 11.406597 -2.807991
											CHANNELS 3 Xrotation Yrotation Zrotation
											JOINT WildBoar_r_Ear_01_02SHJnt
											{
												OFFSET -6.918997 -0.514683 5.827293
												CHANNELS 3 Xrotation Yrotation Zrotation
												JOINT WildBoar_r_Ear_01_03SHJnt
												{
													OFFSET -5.957380 0.355659 6.469810
													CHANNELS 3 Xrotation Yrotation Zrotation
													End Site
													{
														OFFSET -5.020468 -6.741234 -2.612671
													}
												}
											}
										}
										JOINT WildBoar_Nose_01_01SHJnt
										{
											OFFSET 0.146534 -15.145607 -20.472496
											CHANNELS 3 Xrotation Yrotation Zrotation
											JOINT WildBoar_Nose_01_02SHJnt
											{
												OFFSET -0.000001 -9.738365 -5.125526
												CHANNELS 3 Xrotation Yrotation Zrotation
												End Site
												{
													OFFSET 0.000001 -6.131317 9.138596
												}
											}
										}
									}
								}
							}
						}
					}
				}
			}
		}
	}
	JOINT WildBoar_l_HindLeg_HipSHJnt
	{
		OFFSET 11.907801 0.071259 -9.892372
		CHANNELS 3 Xrotation Yrotation Zrotation
		JOINT WildBoar_l_HindLeg_Knee1SHJnt
		{
			OFFSET -1.208079 8.601734 -32.196701
			CHANNELS 3 Xrotation Yrotation Zrotation
			JOINT WildBoar_l_HindLeg_Knee2SHJnt
			{
				OFFSET 0.929813 -5.149776 -18.902822
				CHANNELS 3 Xrotation Yrotation Zrotation
				JOINT WildBoar_l_HindLeg_AnkleSHJnt
				{
					OFFSET -0.016349 -0.419094 -2.601883
					CHANNELS 3 Xrotation Yrotation Zrotation
					JOINT WildBoar_l_HindLeg_BallSHJnt
					{
						OFFSET -0.062816 -2.064716 -5.221140
						CHANNELS 3 Xrotation Yrotation Zrotation
						JOINT WildBoar_l_HindLeg_ToeSHJnt
						{
							OFFSET 0.563698 -5.159508 -0.000093
							CHANNELS 3 Xrotation Yrotation Zrotation
							End Site
							{
								OFFSET 5.159507 0.563698 0.000025
							}
						}
					}
				}
			}
		}
	}
	JOINT WildBoar_r_HindLeg_HipSHJnt
	{
		OFFSET -11.907801 0.071259 -9.892372
		CHANNELS 3 Xrotation Yrotation Zrotation
		JOINT WildBoar_r_HindLeg_Knee1SHJnt
		{
			OFFSET 1.208084 8.601734 -32.196701
			CHANNELS 3 Xrotation Yrotation Zrotation
			JOINT WildBoar_r_HindLeg_Knee2SHJnt
			{
				OFFSET -0.929811 -5.149776 -18.902822
				CHANNELS 3 Xrotation Yrotation Zrotation
				JOINT WildBoar_r_HindLeg_AnkleSHJnt
				{
					OFFSET 0.016349 -0.419094 -2.601883
					CHANNELS 3 Xrotation Yrotation Zrotation
					JOINT WildBoar_r_HindLeg_BallSHJnt
					{
						OFFSET 0.062817 -2.064716 -5.221139
						CHANNELS 3 Xrotation Yrotation Zrotation
						JOINT WildBoar_r_HindLeg_ToeSHJnt
						{
							OFFSET -0.563698 -5.159508 -0.000092
							CHANNELS 3 Xrotation Yrotation Zrotation
							End Site
							{
								OFFSET 5.159507 -0.563698 -0.000023
							}
						}
					}
				}
			}
		}
	}
	JOINT WildBoar_Tail_01_01SHJnt
	{
		OFFSET 0.000000 20.717888 9.172180
		CHANNELS 3 Xrotation Yrotation Zrotation
		JOINT WildBoar_Tail_01_02SHJnt
		{
			OFFSET -0.000000 5.092255 -8.034218
			CHANNELS 3 Xrotation Yrotation Zrotation
			JOINT WildBoar_Tail_01_03SHJnt
			{
				OFFSET -0.000000 -0.708420 -11.714390
				CHANNELS 3 Xrotation Yrotation Zrotation
				End Site
				{
					OFFSET -0.000000 11.707321 -0.816906
				}
			}
		}
	}
}
MOTION
Frames: 4
Frame Time: 0.040000
0.000000 47.043106 64.074684 -13.437732 0.000000 -0.000000 -6.439267 0.012542 0.002957 1.445382 0.012372 -0.031575 -0.530482 0.223330 0.046866 -10.835999 1.195171 0.499593 -1.373222 0.738796 0.329781 -0.000002 -0.000000 0.000000 -18.257584 11.071582 -1.623038 61.904211 0.294242 0.493613 72.305749 -16.196807 0.156653 19.030254 21.373595 -14.226221 0.000001 -0.000015 -0.000000 0.000001 -0.000001 0.000000 3.088215 -0.000000 0.000007 -31.025106 -2.224940 -6.179630 84.929489 -0.507792 -0.557835 57.905866 -5.137442 20.559248 19.797694 5.431173 -3.765481 0.000002 -0.000020 -0.000002 0.000001 -0.000000 -0.000000 -5.854117 3.053461 3.614150 -10.358091 3.036132 5.904226 -25.647236 0.936321 5.647468 -16.076725 -0.000000 0.000005 -0.000010 -0.000001 0.000001 0.000007 -0.000002 -0.000006 -0.111948 -2.706700 3.486823 -0.979899 -2.288566 3.257750 0.000003 0.000009 -0.000006 -3.398545 -1.638647 2.871572 -3.067842 -0.987073 3.648577 0.000000 -0.000004 0.000006 -0.000000 -0.000000 -0.000001 -0.000009 -0.000001 -0.000002 23.033659 1.579951 -0.073721 -27.568119 -4.217454 -1.186935 17.850440 2.669676 -0.335165 0.076830 0.138362 -0.022866 -0.000000 0.000004 -0.000000 -0.000000 -0.000000 -0.000000 23.033654 -1.579957 0.073724 -27.568107 4.217447 1.186940 17.850440 -2.669668 0.335186 0.076832 -0.138359 0.022868 0.000001 0.000006 0.000001 -0.000000 0.000000 0.000000 16.379431 3.645082 -1.332674 16.400778 1.502939 -3.314100 0.001399 -1.515873 0.105799 
0.000000 46.989983 64.348480 -12.742824 0.000000 -0.000000 -4.578426 0.012145 0.002422 0.318986 0.007820 0.018757 -1.309911 0.214063 0.042712 -9.601859 1.157576 0.441818 1.235879 0.728484 0.258172 0.000001 -0.000000 -0.000000 -17.254846 10.173541 -2.224474 46.790433 0.175073 0.407646 78.024659 -23.654980 3.541340 5.672712 25.328746 -12.726394 -0.000001 -0.000015 -0.000001 -0.000001 -0.000000 -0.000001 4.481461 0.000000 0.000006 -40.949525 -1.604015 -6.475665 82.251747 -0.481860 -0.554851 56.910871 2.171615 16.633884 13.525264 0.901428 -0.552763 -0.000000 -0.000021 -0.000000 0.000000 -0.000000 -0.000000 -4.400856 2.968984 1.571272 -7.403019 2.258224 2.516973 -19.365547 1.663599 2.886076 -16.076723 -0.000001 0.000003 -0.000009 -0.000002 0.000000 0.000003 -0.000001 -0.000006 -11.104779 -20.238424 15.292409 -12.161621 -19.828683 14.927836 0.000002 0.000009 -0.000003 -14.040591 11.585669 -7.764003 -14.392937 12.087377 -6.319458 0.000003 0.000002 0.000003 0.000002 0.000001 0.000001 -0.000002 0.000000 0.000001 22.075836 1.545122 -0.066120 -26.189626 -4.024322 -1.080454 16.940502 2.543258 -0.301865 0.139809 0.126424 -0.021403 -0.000000 0.000004 0.000000 0.000000 0.000000 0.000000 22.075844 -1.545128 0.066122 -26.189606 4.024315 1.080459 16.940498 -2.543249 0.301881 0.139809 -0.126424 0.021402 0.000001 0.000006 0.000000 0.000000 -0.000000 0.000000 16.827455 3.425363 -2.121000 16.807526 0.923864 -3.788766 0.002949 -2.199748 0.153569 
0.000000 46.459534 64.785095 -9.449482 0.000000 -0.000000 -3.845454 0.008529 0.001074 0.424548 0.008735 -0.013166 -2.138821 0.163245 0.023966 -8.850113 0.894422 0.277314 6.848527 0.573065 0.109295 0.000002 -0.000000 0.000000 -17.323591 7.787479 -2.334099 37.113981 0.112263 0.337389 56.089524 -26.461485 5.927535 1.415472 23.372902 -10.706636 -0.000001 -0.000015 0.000000 0.000004 0.000000 -0.000001 3.616612 -0.000000 0.000003 -51.352467 -1.043539 -5.898276 76.609956 -0.427830 -0.544620 62.258820 9.282882 9.885195 12.144221 -4.008349 2.123802 0.000000 -0.000020 -0.000001 0.000000 -0.000000 -0.000001 -2.377940 2.768261 0.259599 -3.951597 4.398851 1.203914 -10.843041 1.881437 0.949759 -16.076723 -0.000001 0.000003 -0.000014 0.000001 0.000001 0.000003 -0.000001 -0.000006 -11.232008 -19.962913 15.213739 -12.302523 -19.836770 14.584329 -0.000002 0.000012 -0.000003 -13.529151 11.993672 -8.624775 -14.057698 12.407316 -7.230077 0.000000 0.000003 0.000004 -0.000000 0.000000 0.000000 -0.000010 -0.000001 -0.000001 18.057818 1.507954 -0.057848 -24.530449 -3.788430 -0.958484 15.848226 2.435212 -0.273125 0.221721 0.069938 -0.012806 -0.000000 0.000004 -0.000000 0.000000 0.000000 -0.000000 18.057825 -1.507953 0.057847 -24.530445 3.788428 0.958488 15.848221 -2.435201 0.273143 0.221723 -0.069940 0.012804 0.000001 0.000006 0.000000 0.000000 -0.000000 0.000000 15.262324 3.697536 -0.791841 15.306691 2.097336 -2.693477 0.001921 -1.775232 0.123910 
0.000000 45.436268 65.279022 -2.790981 0.000000 -0.000000 -5.032797 0.003995 0.000260 2.271454 0.001756 0.021560 -2.044520 0.075529 0.003969 -7.669933 0.420968 0.082531 11.130775 0.267102 0.004655 0.000000 0.000000 0.000000 -16.075453 3.290044 -1.701904 29.756481 0.072923 0.277461 16.118854 -9.767480 -1.005699 -0.407384 5.880624 -2.644609 -0.000001 -0.000014 -0.000000 0.000003 0.000000 0.000001 1.659700 -0.000000 -0.000000 -54.965592 -0.798295 -4.326476 68.132824 -0.349194 -0.519400 72.927159 15.397265 0.475531 11.297649 -6.639338 3.695531 0.000001 -0.000020 -0.000000 0.000001 0.000000 -0.000001 -0.164749 2.459161 -0.601836 -0.282353 3.041346 -0.676623 -1.199284 1.686085 -0.496627 -16.076722 0.000000 0.000003 -0.000012 0.000001 0.000000 0.000003 -0.000001 -0.000007 -9.186995 -14.981193 11.392102 -9.854769 -14.783419 11.082281 -0.000000 0.000010 -0.000009 -10.092357 9.093212 -7.361972 -10.510894 9.453989 -6.332312 -0.000003 0.000001 0.000006 0.000002 -0.000000 -0.000001 -0.000010 -0.000001 -0.000001 10.783526 1.367451 -0.030998 -22.498346 -3.494689 -0.818455 14.515426 2.300758 -0.243078 0.340732 0.002446 -0.002550 -0.000000 0.000004 0.000000 -0.000000 -0.000000 -0.000000 10.783525 -1.367449 0.030998 -22.498332 3.494689 0.818456 14.515424 -2.300752 0.243096 0.340738 -0.002447 0.002551 0.000001 0.000006 0.000001 -0.000000 0.000000 0.000001 12.079104 3.710187 2.409118 12.189220 4.320183 -0.638787 0.000402 -0.814672 0.056848 
